<?xml version="1.0" standalone="no"?>
<!DOCTYPE svg PUBLIC "-//W3C//DTD SVG 20010904//EN"
 "http://www.w3.org/TR/2001/REC-SVG-20010904/DTD/svg10.dtd">
<svg version="1.0" xmlns="http://www.w3.org/2000/svg"
 width="962.000000pt" height="346.000000pt" viewBox="0 0 962.000000 346.000000"
 preserveAspectRatio="xMidYMid meet">

<g transform="translate(0.000000,346.000000) scale(0.100000,-0.100000)"
fill="#000000" stroke="none">
<path d="M1480 2864 c-129 -57 -318 -141 -420 -186 -102 -44 -259 -113 -350
-153 -91 -40 -223 -99 -295 -130 -72 -31 -133 -62 -137 -68 -4 -7 -8 -71 -8
-144 0 -106 3 -135 16 -147 19 -20 32 -20 77 -1 20 8 41 15 47 15 6 0 10 -67
10 -194 l0 -195 28 15 c16 8 56 14 100 14 l72 0 0 230 0 231 123 58 c67 32
221 105 342 161 121 56 297 139 390 183 94 44 184 84 200 89 18 5 127 4 270
-3 268 -12 294 -18 328 -79 17 -33 18 -50 12 -273 l-6 -239 58 46 c32 25 154
121 272 213 118 92 215 173 215 178 -1 10 -102 58 -399 188 -496 219 -679 297
-694 296 -9 0 -122 -47 -251 -105z"/>
<path d="M2925 2437 c-66 -51 -250 -195 -410 -320 -159 -125 -375 -295 -480
-377 -104 -81 -242 -189 -305 -239 -63 -50 -139 -110 -168 -133 l-53 -41 -134
133 -133 133 -34 -24 c-103 -72 -269 -202 -266 -208 2 -4 129 -129 282 -277
l279 -269 81 85 c78 82 242 263 431 475 49 55 133 147 185 205 53 58 137 151
187 207 49 55 150 168 224 249 273 302 444 495 437 493 -1 0 -57 -42 -123 -92z"/>
<path d="M1681 2506 c-8 -9 -10 -142 -9 -474 l3 -460 175 140 c96 77 208 164
248 194 l72 55 0 268 c0 194 -3 270 -12 279 -18 18 -461 17 -477 -2z"/>
<path d="M2838 2148 c-255 -282 -379 -421 -481 -538 l-91 -105 84 -7 c47 -3
153 -6 236 -7 205 -1 194 11 194 -216 l0 -173 63 -6 c34 -3 90 -7 125 -9 l62
-3 0 628 c0 371 -4 628 -9 628 -5 0 -87 -86 -183 -192z"/>
<path d="M6490 2053 l-46 -4 -37 -257 c-21 -141 -60 -399 -87 -572 -27 -173
-52 -336 -56 -362 l-6 -48 120 0 c106 0 121 2 126 18 2 9 15 88 28 176 21 148
24 159 47 168 13 5 28 5 32 1 10 -11 159 -342 159 -354 0 -5 65 -9 151 -9
l150 0 -29 53 c-16 28 -71 132 -122 230 -80 155 -90 180 -78 195 7 9 74 86
148 171 74 84 145 167 158 182 l23 29 -149 0 -149 0 -138 -175 c-76 -96 -141
-172 -145 -170 -3 2 1 55 11 117 10 62 34 219 53 348 20 129 38 240 40 246 4
11 -91 26 -138 22 -12 -1 -41 -3 -66 -5z"/>
<path d="M3698 2030 c-124 -21 -215 -71 -269 -146 -54 -75 -64 -108 -64 -214
0 -77 4 -104 22 -142 33 -72 106 -138 230 -207 66 -37 127 -79 148 -103 34
-37 37 -44 32 -86 -6 -54 -35 -85 -95 -101 -83 -24 -219 -4 -324 47 l-56 28
-45 -114 -46 -114 53 -24 c185 -84 457 -90 608 -13 169 86 232 302 142 486
-33 69 -103 129 -227 195 -165 88 -207 160 -134 233 25 25 45 34 86 40 79 11
196 -9 292 -49 13 -6 24 13 58 101 49 125 50 120 -55 153 -116 35 -253 47
-356 30z"/>
<path d="M7525 2015 c-11 -2 -54 -7 -96 -10 l-75 -6 3 -32 c2 -29 2 -29 -5 -7
-7 20 -11 8 -21 -58 -8 -45 -11 -85 -8 -88 3 -3 8 23 13 58 6 52 9 58 14 33 3
-16 11 -29 17 -28 10 2 30 -36 24 -46 -2 -2 2 -7 9 -11 18 -11 16 -121 -3
-157 -9 -18 -17 -44 -17 -59 0 -19 -4 -25 -15 -20 -11 4 -15 -2 -15 -27 -1
-29 -2 -30 -12 -12 -12 19 -13 18 -19 -10 -11 -48 -10 -155 1 -155 6 0 10 -7
10 -16 0 -9 6 -22 14 -28 16 -13 31 -80 16 -71 -14 8 -50 -79 -50 -119 0 -18
5 -37 11 -43 9 -9 8 -16 -4 -28 -12 -12 -16 -34 -15 -90 2 -70 1 -75 -26 -96
-21 -17 -25 -24 -14 -30 10 -7 9 -9 -4 -9 -10 0 -18 -4 -18 -10 0 -5 30 -11
68 -13 52 -2 44 -4 -37 -5 -90 -2 -102 0 -97 14 3 9 8 41 11 72 4 57 4 57 -5
12 -5 -25 -12 -60 -15 -77 l-6 -33 128 0 129 0 23 173 c13 94 25 178 27 185 2
9 35 12 116 12 62 0 144 7 182 15 87 18 200 70 190 86 -4 8 -3 9 5 5 14 -9 83
62 74 77 -3 6 -1 7 5 3 7 -4 21 12 35 41 65 129 76 319 23 426 -39 81 -109
136 -211 164 -47 13 -313 27 -360 18z m-148 -107 c-3 -8 -6 -5 -6 6 -1 11 2
17 5 13 3 -3 4 -12 1 -19z m288 -48 c3 -5 16 -10 27 -10 42 0 5 -15 -60 -25
-52 -8 -67 -14 -68 -28 -1 -10 0 -11 3 -3 5 17 103 29 153 20 42 -8 95 -35
131 -66 26 -23 26 -24 19 -118 -4 -52 -3 -96 1 -98 14 -6 10 -47 -6 -78 -11
-21 -15 -24 -16 -11 -1 9 -2 23 -3 30 -1 6 1 21 6 32 8 20 8 20 -4 0 -7 -11
-29 -35 -48 -54 -19 -19 -29 -31 -21 -26 10 5 12 4 7 -4 -4 -6 -11 -9 -16 -6
-4 3 -25 -2 -46 -11 -22 -9 -79 -20 -129 -24 l-90 -8 98 2 c64 1 96 -2 94 -9
-2 -5 -28 -13 -58 -16 -30 -3 -49 -6 -43 -7 7 -1 15 -13 18 -27 4 -14 14 -25
24 -25 15 -1 15 -2 -2 -15 -19 -15 -19 -15 3 -15 12 0 19 -4 16 -10 -3 -5 1
-10 10 -10 9 0 25 -9 37 -19 l21 -20 -24 -5 c-13 -3 -75 -7 -137 -8 l-112 -3
3 25 c2 14 0 38 -4 54 -6 19 -4 37 7 57 10 21 12 34 5 48 -6 10 -7 21 -4 25 4
4 6 34 5 66 -2 50 0 59 13 54 12 -5 15 2 15 35 0 30 4 41 15 41 9 0 15 -10 16
-22 1 -22 1 -21 8 2 5 14 10 50 13 80 3 30 3 44 1 31 -4 -19 -7 -21 -14 -10
-6 9 -8 -1 -4 -31 2 -25 2 -36 -1 -25 -4 11 -11 23 -16 26 -7 4 -6 13 0 26 6
11 9 29 6 40 -3 12 2 33 11 47 10 14 14 26 11 26 -4 0 1 11 10 25 12 19 25 25
50 25 19 0 33 3 33 8 -5 30 21 46 36 22z m257 -295 c12 -16 9 -35 -6 -35 -8 0
-17 -6 -19 -12 -3 -7 -6 4 -6 25 -1 36 13 46 31 22z m-19 -292 c-17 -13 -16
-14 7 -8 24 5 23 5 -4 -11 -19 -10 -32 -12 -38 -6 -7 7 -3 14 11 22 12 6 19
15 16 20 -3 6 1 7 10 4 14 -6 14 -8 -2 -21z m-118 -63 c-11 -5 -29 -8 -40 -8
-16 0 -15 2 5 8 34 11 60 11 35 0z m-338 -122 c-3 -7 -5 -2 -5 12 0 14 2 19 5
13 2 -7 2 -19 0 -25z m-40 -230 c-3 -7 -5 -2 -5 12 0 14 2 19 5 13 2 -7 2 -19
0 -25z"/>
<path d="M7551 1744 c0 -11 3 -14 6 -6 3 7 2 16 -1 19 -3 4 -6 -2 -5 -13z"/>
<path d="M7521 1724 c0 -11 3 -14 6 -6 3 7 2 16 -1 19 -3 4 -6 -2 -5 -13z"/>
<path d="M7505 1465 c-3 -31 -5 -59 -2 -61 3 -3 8 20 12 51 3 31 5 59 2 61 -3
3 -8 -20 -12 -51z"/>
<path d="M4539 1946 c-2 -2 -42 -9 -89 -15 -138 -18 -125 -8 -145 -118 -26
-147 -24 -143 -94 -143 l-59 0 -6 -57 c-4 -32 -10 -72 -13 -90 l-5 -32 53 -3
54 -3 -3 -40 c-2 -22 -14 -109 -28 -194 -35 -215 -39 -272 -24 -326 15 -54 71
-109 127 -124 50 -14 178 -14 244 0 50 11 51 12 45 41 -3 17 -6 59 -6 93 l0
62 -49 -5 c-119 -11 -128 9 -95 215 12 83 28 181 35 217 l11 66 88 0 89 0 6
48 c4 26 11 65 15 87 5 22 7 41 5 44 -3 2 -43 3 -90 2 -100 -3 -94 -16 -65
143 11 60 20 115 20 123 0 12 -12 18 -21 9z"/>
<path d="M7312 1765 c0 -16 2 -22 5 -12 2 9 2 23 0 30 -3 6 -5 -1 -5 -18z"/>
<path d="M7302 1710 c0 -14 2 -19 5 -12 2 6 2 18 0 25 -3 6 -5 1 -5 -13z"/>
<path d="M4985 1672 c-238 -71 -384 -356 -321 -624 37 -157 174 -258 350 -258
169 0 309 75 396 210 90 141 112 356 50 497 -27 62 -102 137 -163 164 -71 31
-225 37 -312 11z m202 -196 c60 -50 71 -193 27 -324 -32 -95 -64 -139 -121
-164 -57 -25 -106 -17 -144 23 -70 75 -51 311 35 423 51 67 149 87 203 42z"/>
<path d="M5901 1675 c-79 -22 -145 -62 -206 -123 -105 -105 -149 -233 -143
-408 3 -89 7 -108 36 -166 37 -76 82 -120 162 -157 50 -24 66 -26 185 -26 133
0 245 21 245 47 0 50 -26 188 -34 184 -95 -41 -214 -46 -264 -10 -123 90 -78
371 71 443 53 26 153 28 221 5 26 -9 48 -15 50 -13 1 2 15 44 30 94 30 101 29
103 -44 126 -58 19 -247 21 -309 4z"/>
<path d="M8610 1675 c-19 -7 -34 -18 -32 -25 1 -6 -2 -9 -8 -5 -16 10 -63 -32
-100 -90 -19 -30 -38 -55 -42 -55 -5 0 -8 38 -8 85 l0 85 -99 0 -99 0 -6 -37
c-3 -21 -15 -110 -26 -198 -11 -88 -32 -234 -46 -324 -14 -90 -23 -171 -21
-180 2 -9 7 11 11 44 6 45 10 55 18 42 5 -10 12 -15 16 -13 4 2 15 -9 24 -25
10 -16 13 -29 8 -29 -6 0 -10 -7 -10 -15 0 -9 -7 -18 -15 -21 -8 -4 -15 -13
-15 -22 0 -8 -3 -12 -7 -9 -3 4 -12 2 -20 -4 -10 -9 -13 -7 -13 11 0 36 -7 20
-14 -32 l-7 -48 118 0 118 0 28 178 c36 225 43 254 72 312 54 106 117 149 218
150 55 0 57 1 57 28 1 15 9 65 19 112 10 47 16 88 14 93 -7 11 -95 7 -133 -8z
m-102 -95 c-7 -10 -14 -17 -17 -15 -4 4 18 35 25 35 2 0 -1 -9 -8 -20z m-291
-82 c-3 -8 -6 -5 -6 6 -1 11 2 17 5 13 3 -3 4 -12 1 -19z m-32 -315 c-18 -41
-21 -24 -11 50 l11 72 5 -50 c3 -27 1 -60 -5 -72z m186 -83 c-6 -39 -9 -46
-10 -23 0 17 -4 40 -7 50 -5 15 -4 16 6 3 9 -13 11 -12 9 5 -1 11 0 29 1 40
l3 20 4 -20 c2 -11 0 -45 -6 -75z m-200 -34 c14 8 23 -26 11 -38 -8 -8 -14 -4
-22 16 -5 15 -9 33 -9 39 1 7 3 4 6 -6 2 -9 9 -15 14 -11z m176 -108 c-3 -8
-6 -5 -6 6 -1 11 2 17 5 13 3 -3 4 -12 1 -19z m-16 -99 c-5 -26 -9 -34 -10
-19 -1 27 9 73 15 67 2 -2 0 -23 -5 -48z m-128 -36 c-7 -2 -21 -2 -30 0 -10 3
-4 5 12 5 17 0 24 -2 18 -5z m90 0 c-13 -2 -33 -2 -45 0 -13 2 -3 4 22 4 25 0
35 -2 23 -4z"/>
<path d="M9082 1680 c-59 -12 -157 -58 -179 -83 -16 -18 -14 -18 14 2 18 14
36 20 44 16 8 -5 10 -4 5 3 -9 14 3 15 24 2 12 -7 12 -12 2 -22 -10 -10 -16
-10 -32 0 -18 11 -24 9 -45 -12 -14 -14 -26 -20 -28 -13 -3 9 -8 8 -20 -1 -9
-8 -13 -20 -10 -28 4 -10 0 -12 -11 -8 -15 6 -21 -5 -17 -29 1 -5 -3 -6 -8 -3
-13 8 -56 -66 -82 -140 -25 -70 -40 -205 -30 -259 6 -32 8 -23 8 47 1 110 19
198 40 198 11 0 14 7 10 25 -2 14 -2 23 1 20 3 -2 10 -1 16 4 7 6 12 0 13 -20
1 -15 -2 -31 -8 -35 -6 -3 0 -19 14 -37 37 -50 40 -65 42 -182 2 -124 6 -147
25 -153 8 -3 22 -12 32 -22 14 -13 16 -22 8 -48 -5 -20 -5 -30 1 -27 5 4 9 1
9 -5 0 -6 4 -9 8 -6 5 3 22 2 38 -3 l29 -8 -27 -5 c-15 -3 -25 -1 -22 3 3 5
-2 6 -11 3 -23 -9 -7 -19 38 -23 4 -1 7 -5 7 -10 0 -20 -93 19 -160 66 l-35
24 35 -31 c149 -132 424 -111 573 43 48 50 114 149 88 133 -6 -4 -18 -21 -26
-37 -10 -17 -20 -27 -27 -23 -7 5 -9 2 -5 -8 7 -19 -11 -38 -29 -31 -9 3 -12
-2 -9 -15 4 -24 -58 -78 -77 -66 -6 4 -9 3 -5 -2 3 -5 -13 -17 -35 -26 -29
-13 -37 -14 -29 -4 9 11 9 15 -1 19 -7 3 1 6 17 7 l30 2 -27 9 c-18 7 -28 19
-30 37 -2 21 -9 28 -30 30 -16 2 -28 9 -28 15 0 6 -7 1 -16 -11 -16 -23 -79
-32 -86 -11 -2 5 -18 11 -36 11 -18 1 -35 5 -38 10 -4 5 21 7 58 4 42 -4 51
-3 28 3 -19 4 -45 12 -56 19 -12 6 -25 8 -29 4 -3 -4 -6 -2 -4 3 1 6 -5 26
-13 45 -53 120 -8 348 84 426 39 32 95 46 138 34 46 -13 52 -11 15 5 -16 8
-23 14 -14 15 8 0 24 -7 35 -15 10 -8 15 -15 11 -15 -5 0 0 -12 11 -27 10 -16
22 -35 25 -43 4 -10 6 -11 6 -2 1 7 -3 21 -8 31 -7 13 -6 18 4 18 8 0 12 -4 9
-9 -3 -4 -1 -8 5 -8 5 0 12 -9 16 -19 3 -12 12 -18 20 -15 8 3 27 -3 43 -15
37 -26 52 -81 41 -147 -4 -27 -8 -64 -8 -81 -1 -30 2 -33 29 -33 23 0 30 5 30
19 0 19 17 38 26 28 3 -2 7 -15 9 -27 7 -38 13 -34 24 20 16 73 14 208 -4 267
-30 103 -120 196 -213 223 -53 15 -180 21 -230 10z m-49 -41 c-8 -8 -13 -7
-18 2 -5 8 -4 10 3 5 7 -4 12 -2 12 5 0 7 3 9 7 6 4 -4 2 -12 -4 -18z m100
-119 c7 -1 -3 -7 -22 -16 -19 -8 -37 -12 -40 -9 -3 3 5 8 18 12 17 4 20 8 9
15 -9 7 -8 8 5 4 10 -3 24 -6 30 -6z m-301 -39 c8 12 9 12 6 0 -6 -22 -28 -25
-27 -4 0 12 2 14 6 4 5 -11 7 -11 15 0z m-12 -43 c0 -4 -4 -8 -9 -8 -6 0 -12
4 -15 8 -3 5 1 9 9 9 8 0 15 -4 15 -9z m707 -210 c-2 -13 -4 -3 -4 22 0 25 2
35 4 23 2 -13 2 -33 0 -45z m-580 20 c-3 -8 -6 -5 -6 6 -1 11 2 17 5 13 3 -3
4 -12 1 -19z m86 -435 c-7 -2 -21 -2 -30 0 -10 3 -4 5 12 5 17 0 24 -2 18 -5z"/>
<path d="M7290 1662 c0 -6 -11 -86 -25 -178 -14 -92 -23 -169 -21 -172 3 -2 8
19 12 47 4 28 10 51 15 51 5 0 6 7 3 15 -3 8 -2 20 2 27 5 7 7 23 5 35 -1 13
3 57 9 99 6 42 9 78 6 82 -3 3 -6 0 -6 -6z"/>
<path d="M2265 1270 l0 -150 78 0 77 0 0 150 0 150 -78 0 -77 0 0 -150z"/>
<path d="M2482 1268 l3 -153 113 -3 112 -3 0 156 0 155 -115 0 -116 0 3 -152z"/>
<path d="M1920 1131 l-245 -272 -3 -55 -3 -54 58 0 c32 0 143 -7 247 -15 104
-9 190 -14 192 -12 3 2 3 156 2 342 l-3 337 -245 -271z"/>
<path d="M9386 1343 c10 -40 14 -41 14 -5 0 18 -5 32 -10 32 -6 0 -8 -11 -4
-27z"/>
<path d="M9303 1305 c0 -33 2 -45 4 -27 2 18 2 45 0 60 -2 15 -4 0 -4 -33z"/>
<path d="M7225 1225 c-4 -31 -5 -58 -3 -61 3 -2 8 21 12 52 4 31 5 59 2 61 -2
3 -8 -21 -11 -52z"/>
<path d="M9277 1168 c-4 -14 -9 -34 -13 -45 -3 -10 2 -5 11 10 9 16 15 36 13
45 -3 12 -6 9 -11 -10z"/>
<path d="M7212 1120 c0 -19 2 -27 5 -17 2 9 2 25 0 35 -3 9 -5 1 -5 -18z"/>
<path d="M9496 1105 c-3 -9 -6 -22 -5 -28 0 -7 5 -1 10 12 5 13 8 26 5 28 -2
2 -6 -3 -10 -12z"/>
<path d="M1061 935 l-3 -165 173 0 174 1 -168 164 c-92 91 -169 165 -170 165
-1 0 -4 -74 -6 -165z"/>
<path d="M7202 1060 c0 -14 2 -19 5 -12 2 6 2 18 0 25 -3 6 -5 1 -5 -13z"/>
<path d="M9216 1044 c-15 -19 -42 -45 -60 -56 -17 -11 -22 -17 -11 -13 11 4
25 8 32 8 7 0 11 3 10 6 -4 12 37 50 47 44 6 -3 8 -3 4 2 -4 4 -3 16 3 26 15
28 7 23 -25 -17z"/>
<path d="M8721 1044 c0 -11 3 -14 6 -6 3 7 2 16 -1 19 -3 4 -6 -2 -5 -13z"/>
<path d="M2260 880 c0 -120 3 -162 13 -164 6 -3 83 -7 170 -10 l157 -6 0 170
0 170 -170 0 -170 0 0 -160z"/>
<path d="M2670 867 l0 -165 48 -6 c26 -3 88 -8 137 -11 50 -3 102 -8 118 -11
l27 -6 0 170 0 170 -62 6 c-35 3 -109 8 -165 12 l-103 7 0 -166z"/>
<path d="M9340 1026 c0 -2 7 -9 15 -16 12 -10 15 -10 15 4 0 9 -7 16 -15 16
-8 0 -15 -2 -15 -4z"/>
<path d="M9392 1018 c-16 -16 -15 -35 1 -41 9 -3 13 2 12 16 -1 12 5 25 14 29
14 6 14 7 1 7 -9 1 -21 -4 -28 -11z"/>
<path d="M7192 995 c0 -16 2 -22 5 -12 2 9 2 23 0 30 -3 6 -5 -1 -5 -18z"/>
<path d="M8760 950 c6 -11 13 -20 16 -20 2 0 0 9 -6 20 -6 11 -13 20 -16 20
-2 0 0 -9 6 -20z"/>
<path d="M9333 963 c-18 -6 -16 -23 1 -23 17 0 30 16 19 23 -5 2 -14 2 -20 0z"/>
<path d="M905 683 c-138 -8 -352 -34 -470 -58 -111 -22 -353 -92 -343 -99 1
-1 44 1 93 5 137 11 534 10 686 -1 253 -20 589 -64 1194 -156 475 -72 726 -46
1025 107 63 32 128 69 143 81 l28 23 -278 1 c-208 1 -332 6 -493 23 -353 36
-642 60 -865 71 -192 9 -574 11 -720 3z"/>
</g>
</svg>
